<svg width="21" height="19" viewBox="0 0 21 19" fill="none" xmlns="http://www.w3.org/2000/svg">
<path id="Vector" d="M19.7167 18.75L12.0458 11.9924C11.4625 12.4377 10.7823 12.7846 10.0054 13.033C9.22838 13.2814 8.40159 13.4056 7.525 13.4056C5.42185 13.4056 3.6419 12.7632 2.18514 11.4785C0.728379 10.1938 0 8.64352 0 6.82778C0 5.01204 0.729167 3.46181 2.1875 2.17708C3.64583 0.892361 5.41042 0.25 7.48125 0.25C9.55208 0.25 11.3118 0.892361 12.7604 2.17708C14.209 3.46181 14.9333 5.01332 14.9333 6.83163C14.9333 7.56564 14.7972 8.27523 14.525 8.96042C14.2528 9.6456 13.8444 10.288 13.3 10.8875L21 17.6194L19.7167 18.75ZM7.49583 11.8639C9.07569 11.8639 10.4186 11.3714 11.5245 10.3865C12.6304 9.4015 13.1833 8.21528 13.1833 6.82778C13.1833 5.44028 12.6304 4.25405 11.5245 3.2691C10.4186 2.28414 9.07569 1.79167 7.49583 1.79167C5.89978 1.79167 4.54312 2.28414 3.42586 3.2691C2.30862 4.25405 1.75 5.44028 1.75 6.82778C1.75 8.21528 2.30862 9.4015 3.42586 10.3865C4.54312 11.3714 5.89978 11.8639 7.49583 11.8639Z" fill="#737373"/>
</svg>
